<svg xmlns="http://www.w3.org/2000/svg" viewBox="0 0 44.83 37.66"><defs><style>.cls-1{fill:#fff}</style></defs><title>Ресурс 10</title><g id="Слой_2" data-name="Слой 2"><g id="Layer_1" data-name="Layer 1"><path class="cls-1" d="M31.18 5.11a11.13 11.13 0 0 1 4.59.83A2.58 2.58 0 0 1 35 7.78a12.38 12.38 0 0 0-3.58-.56c-3 0-5.2 1.52-5.2 7s2.21 6.89 5.2 6.89a11.61 11.61 0 0 0 2.23-.2v-5.67h-3.52a2.28 2.28 0 0 1-.2-1 2.33 2.33 0 0 1 .2-1H36v9.22a12.56 12.56 0 0 1-4.86.84c-4.88 0-7.53-3.09-7.53-9.08s2.69-9.11 7.57-9.11z"/><path class="cls-1" d="M30.64 28.37a14.19 14.19 0 1 1 14.19-14.19 14.2 14.2 0 0 1-14.19 14.19zm0-26.54A12.36 12.36 0 1 0 43 14.18 12.37 12.37 0 0 0 30.64 1.83z"/><path class="cls-1" d="M5.78 17.9a.88.88 0 0 1-.78-.38.91.91 0 0 1 .2-1.28L18.85 6.4a.91.91 0 1 1 1.07 1.48L6.31 17.73a.88.88 0 0 1-.53.17zm5.39 7.62a.93.93 0 0 1-.74-.37.91.91 0 0 1 .19-1.28l7-5.25a.91.91 0 0 1 1.28.18.92.92 0 0 1-.18 1.29l-7 5.25a.9.9 0 0 1-.55.18zM.92 28.11a.93.93 0 0 1-.74-.37.91.91 0 0 1 .19-1.28l4.86-3.63a.91.91 0 0 1 1.1 1.46l-4.86 3.64a1 1 0 0 1-.55.18zm9.76-7.84a.89.89 0 0 1-.72-.36.91.91 0 0 1 .16-1.28l6.7-5.17a.91.91 0 0 1 1.28.16.92.92 0 0 1-.16 1.29l-6.7 5.17a.9.9 0 0 1-.56.19zM9.44 32.74a.92.92 0 0 1-.56-1.64l11.19-8.74a.91.91 0 0 1 1.29.15.92.92 0 0 1-.16 1.29L10 32.55a.93.93 0 0 1-.56.19zm2.4 4.92a.92.92 0 0 1-.61-1.61l3.08-2.7a.91.91 0 1 1 1.21 1.37l-3.08 2.71a.92.92 0 0 1-.6.23zM19.4 31a.91.91 0 0 1-.6-1.6l4.87-4.28a.92.92 0 0 1 1.29.09.91.91 0 0 1-.08 1.29L20 30.79a.94.94 0 0 1-.6.21zm.49 6.12a.92.92 0 0 1-.62-1.59l9.61-8.8a.91.91 0 0 1 1.29.05.92.92 0 0 1-.05 1.3l-9.61 8.8a.89.89 0 0 1-.62.24z"/></g></g></svg>