<svg id="Layer_1" data-name="Layer 1" xmlns="http://www.w3.org/2000/svg" width="20" height="16" viewBox="0 0 20 16"><defs><style>.cls-1{fill:none;stroke:#000;stroke-miterlimit:10}.cls-2{fill:#000}</style></defs><title>GPON</title><path class="cls-1" d="M0 7.5h6"/><path class="cls-2" d="M6803 681a1 1 0 1 1-1 1 1 1 0 0 1 1-1m0-1a2 2 0 1 0 2 2 2 2 0 0 0-2-2z" transform="translate(-6796 -674)"/><path class="cls-1" d="M8.63 7.96L15.86.73"/><path class="cls-2" d="M16 3.33V1h-2.75l1.02-1H17v2.31l-1 1.02z"/><path class="cls-1" d="M9 7.5h10"/><path class="cls-2" d="M16.86 10l1.7-2-1.7-2h1.44L20 8l-1.7 2h-1.44z"/><path class="cls-1" d="M8.63 7.96l7.23 7.23"/><path class="cls-2" d="M13.25 15H16v-2.41l1 1.01V16h-2.73l-1.02-1z"/></svg>