<svg id="Layer_1" data-name="Layer 1" xmlns="http://www.w3.org/2000/svg" width="11.56" height="11.19" viewBox="0 0 11.56 11.19"><defs><style>.cls-1{fill:#000}</style></defs><title>IP</title><path class="cls-1" d="M790.63 607.6h-.95v-11.19h.95v11.19zm3.98-4.6v4.56h-.95v-11.15h3.81a4 4 0 0 1 2.76.89 3.5 3.5 0 0 1 0 4.89 4.14 4.14 0 0 1-2.82.86h-2.84zm0-.8h2.87a3 3 0 0 0 2.1-.65 2.34 2.34 0 0 0 .72-1.83 2.45 2.45 0 0 0-.72-1.85 2.89 2.89 0 0 0-2-.71h-2.93v5z" transform="translate(-789.68 -596.41)"/></svg>