<svg xmlns="http://www.w3.org/2000/svg" width="750" height="449" viewBox="0 0 5234 3136" shape-rendering="geometricPrecision" text-rendering="geometricPrecision" image-rendering="optimizeQuality" fill-rule="evenodd" clip-rule="evenodd"><defs><style>.fil5,.fil6{fill:#472876}.fil6,.fil7{fill-rule:nonzero}.fil7{fill:#e96512}.fil0{fill:url(#id0)}.fil9{fill:url(#id1)}.fil3{fill:url(#id2)}.fil8{fill:url(#id3)}.fil4{fill:url(#id4)}.fil1{fill:url(#id5)}.fil2{fill:url(#id6)}</style><linearGradient id="id0" gradientUnits="userSpaceOnUse" x1="670.708" y1="114.655" x2="943.289" y2="114.655"><stop offset="0" stop-color="#d4171d"/><stop offset="1" stop-color="#e86426"/></linearGradient><linearGradient id="id1" gradientUnits="userSpaceOnUse" x1="347.885" y1="1175.82" x2="347.885" y2="1721.26"><stop offset="0" stop-color="#cb181e"/><stop offset="1" stop-color="#ee6e17"/></linearGradient><linearGradient id="id2" gradientUnits="userSpaceOnUse" x1="34.039" y1="1852.73" x2="303.411" y2="1381.34"><stop offset="0" stop-color="#ec7717"/><stop offset="1" stop-color="#d3292a"/></linearGradient><linearGradient id="id3" gradientUnits="userSpaceOnUse" x1="1565.42" y1="1229.96" x2="210.697" y2="271.589"><stop offset="0" stop-color="#ee7814"/><stop offset="1" stop-color="#da171b"/></linearGradient><linearGradient id="id4" gradientUnits="userSpaceOnUse" x1="61.813" y1="1766.9" x2="137.458" y2="2052.13"><stop offset="0" stop-color="#cb1a20"/><stop offset=".522" stop-color="#d9391b"/><stop offset="1" stop-color="#e75816"/></linearGradient><linearGradient id="id5" gradientUnits="userSpaceOnUse" x1="736.57" y1="107.109" x2="364.242" y2="422.748"><stop offset="0" stop-color="#ef6f16"/><stop offset="1" stop-color="#bc1c1e"/></linearGradient><linearGradient id="id6" gradientUnits="userSpaceOnUse" x1="1161.31" y1="1285.29" x2="590.685" y2="1134.87"><stop offset="0" stop-color="#ec6416"/><stop offset="1" stop-color="#b01719"/></linearGradient></defs><g id="РЎР_x00bb_РѕР_x2116__x0020_1"><path class="fil0" d="M671 0l272 191-259 38z"/><path class="fil1" d="M674 0l25 530-297-201z"/><path class="fil2" d="M131 1176l1317-26 173 120H522z"/><path class="fil3" d="M213 1388l124 330L0 1846z"/><path class="fil4" d="M0 1846l199-76-125 279z"/><path class="fil5" d="M3784 2882c50 0 91 41 91 91s-41 91-91 91-91-41-91-91 41-91 91-91z"/><path class="fil6" d="M680 1625v238c0 110-11 207-36 297-20 70-49 135-84 199l-74 5 8 380h153l11-226h519l11 226h153l9-380-89-5v-734H680zm186 164h194v564H765c24-42 46-97 62-151 26-90 40-191 40-294v-119zm589 728h199v-319c18 3 42 4 69 4 119 0 220-29 289-94 53-50 82-125 82-212s-38-162-95-207c-59-48-148-72-271-72s-210 8-271 19v881zm199-739c14-4 42-8 83-8 100 0 157 49 157 131 0 91-66 146-173 146-29 0-50-1-67-5v-264zm463-154l299 613c7 15 11 26 3 41-16 41-58 83-120 83-29 0-50-3-66-7l-14 162c25 9 53 15 99 15 104 0 178-45 236-118 66-82 121-217 175-356l166-433h-211l-96 311c-22 75-37 135-49 174h-4c-20-54-38-107-62-171l-129-314h-227zm850 0v893h202v-727h336v-166h-538zm984-15c-262 0-432 200-432 468 0 254 154 454 418 454 260 0 436-177 436-470 0-246-149-452-422-452zm-5 160c138 0 215 138 215 298 0 174-78 303-213 303-134 0-216-123-216-298 0-174 79-303 215-303zm550-146v893h229l181-322c53-94 109-212 150-318h4c-12 117-14 238-14 376v264h184v-893h-206l-191 351c-53 95-112 213-158 318h-5c8-119 11-261 11-404v-265h-184zm171-204c11 111 76 163 192 163 117 0 191-49 199-163h-134c-5 52-21 81-62 81-42 0-57-29-58-81h-137z"/><path class="fil7" d="M1537 3130h73v-260h87v-61h-246v61h86v260zm388-195h-118v-67h125v-60h-197v321h204v-60h-131v-76h118v-59zm97-126v141c0 49-5 90-24 110-8 9-21 15-37 17l9 59c26 0 47-7 64-16 48-29 59-92 59-175v-76h73v262h72v-321h-215zm469 126h-118v-67h125v-60h-197v321h204v-60h-131v-76h118v-59zm63-126v321h72v-134h14c39 0 54 28 65 64 8 24 14 49 25 71h78c-15-32-26-67-37-101-13-39-32-67-73-78l111-143h-88l-88 134h-6v-134h-72zm420-5c-94 0-156 72-156 168 0 92 56 164 150 164 93 0 157-64 157-169 0-89-54-163-152-163zm-2 58c50 0 77 50 77 107 0 62-28 109-77 109-48 0-78-44-78-107 0-62 28-109 77-109zm474 269h71l-18-321h-94l-34 107c-10 36-21 78-30 115h-1c-7-38-17-78-27-115l-31-107h-96l-20 321h67l6-122c2-40 4-90 6-133h1c8 42 19 88 29 125l34 124h56l39-125c12-38 26-83 36-124h1c0 47 1 93 3 132l5 123zm852-190h-119v57h49v67c-6 3-19 5-36 5-59 0-101-39-101-105 0-70 46-104 106-104 35 0 57 6 74 14l15-58c-16-8-47-16-89-16-105 0-182 61-183 168 0 47 16 89 45 117 29 29 72 43 130 43 42 0 84-10 107-18v-169zm56 184h72v-115c7 1 15 1 25 1 43 0 79-10 104-34 19-18 29-45 29-76s-14-58-34-74c-21-17-53-26-98-26-44 0-75 3-98 7v317zm72-266c5-1 15-3 30-3 36 0 56 18 56 47 0 33-24 52-62 52-10 0-18 0-24-2v-95zm345-61c-94 0-156 72-156 168 0 92 56 164 150 164 93 0 157-64 157-169 0-89-54-163-152-163zm-2 58c50 0 77 50 77 107 0 62-28 109-77 109-48 0-78-44-78-107 0-62 28-109 77-109zm267 269v-97c0-52-1-98-3-140h1c16 38 37 79 56 113l68 124h76v-321h-66v94c0 48 1 92 6 134h-1c-14-36-33-76-52-110l-66-118h-84v321h66z"/><path class="fil8" d="M402 325l1243 850-1514 1z"/><path class="fil9" d="M131 1176h434l-228 545z"/></g></svg>