<svg xmlns="http://www.w3.org/2000/svg" viewBox="0 0 25.5 30.55"><defs><style>.cls-1{fill:#fff;fill-rule:evenodd}</style></defs><title>Ресурс 11</title><g id="Слой_2" data-name="Слой 2"><path class="cls-1" d="M25.49 9.78c0 4.92-.81 9.67-3.38 14a14.56 14.56 0 0 1-8.3 6.65 3.58 3.58 0 0 1-2.05 0c-4.89-1.56-8-5-9.81-9.67A32.15 32.15 0 0 1 .05 7.38a2.21 2.21 0 0 1 1.39-2q5.06-2.46 10.07-5A2.49 2.49 0 0 1 14 .33q4.92 2.51 9.91 4.91a2.43 2.43 0 0 1 1.59 2.5c-.04.68-.01 1.36-.01 2.04zM11.71 2.46h-.33c-3 1.5-6 3-9 4.53a1.16 1.16 0 0 0-.44.84 30.19 30.19 0 0 0 .66 8.69c.84 3.69 2.3 7.08 5.25 9.63a10.77 10.77 0 0 0 3.88 2.24zM13.8 28.4a4.89 4.89 0 0 0 .48-.15 13.16 13.16 0 0 0 6.93-6.76 27.65 27.65 0 0 0 2.35-13.81 1.3 1.3 0 0 0-.65-.8C20.61 5.7 18.28 4.55 16 3.4l-2.2-1.07z" id="Layer_1" data-name="Layer 1"/></g></svg>