<svg id="Layer_1" data-name="Layer 1" xmlns="http://www.w3.org/2000/svg" width="13.98" height="14" viewBox="0 0 13.98 14"><defs><style>.cls-1{fill:none}.cls-2{clip-path:url(#clip-path)}.cls-3{fill:#000}</style><clipPath id="clip-path" transform="translate(-292 -858)"><path class="cls-1" d="M292 857.96h14v14.07h-14z"/></clipPath></defs><title>telephone</title><g class="cls-2"><path class="cls-3" d="M303.06 866.67a1.39 1.39 0 0 0-1-.46 1.43 1.43 0 0 0-1 .46l-.93.93-.23-.12-.29-.15a10.15 10.15 0 0 1-2.43-2.22 6.09 6.09 0 0 1-.8-1.26c.24-.22.47-.46.69-.67l.25-.25a1.36 1.36 0 0 0 0-2l-.81-.81-.28-.28c-.18-.19-.37-.38-.56-.55a1.41 1.41 0 0 0-1-.43 1.46 1.46 0 0 0-1 .43l-1 1a2.17 2.17 0 0 0-.64 1.37 5.22 5.22 0 0 0 .38 2.2 12.76 12.76 0 0 0 2.26 3.77 13.87 13.87 0 0 0 4.63 3.63 7.2 7.2 0 0 0 2.6.77h.19a2.22 2.22 0 0 0 1.71-.73 6 6 0 0 1 .52-.53l.38-.38a1.47 1.47 0 0 0 .45-1 1.42 1.42 0 0 0-.45-1zm1.25 3.06l-.37.38a7.07 7.07 0 0 0-.59.61 1.47 1.47 0 0 1-1.15.49h-.14a6.63 6.63 0 0 1-2.38-.71 13.68 13.68 0 0 1-4.51-3.54 12.38 12.38 0 0 1-2.2-3.67 4.4 4.4 0 0 1-.34-1.92 1.42 1.42 0 0 1 .42-.91l1-1a.69.69 0 0 1 .46-.21.64.64 0 0 1 .45.21c.19.17.36.35.55.54l.29.3.83.83a.58.58 0 0 1 0 .95l-.26.26c-.26.27-.5.51-.77.75a.62.62 0 0 0-.16.69 6.88 6.88 0 0 0 1 1.61 11.26 11.26 0 0 0 2.72 2.47l.38.2.3.17a.62.62 0 0 0 .3.08.67.67 0 0 0 .46-.21l1-1a.68.68 0 0 1 .46-.23.65.65 0 0 1 .44.22l1.69 1.7a.6.6 0 0 1 0 1zm-4.75-8.4a3.75 3.75 0 0 1 2 1.06 3.8 3.8 0 0 1 1.06 2 .39.39 0 0 0 .39.33h.07a.39.39 0 0 0 .33-.46 4.6 4.6 0 0 0-3.75-3.75.4.4 0 0 0-.46.32.4.4 0 0 0 .32.46zm6.44 2.84a7.57 7.57 0 0 0-6.17-6.17.4.4 0 1 0-.13.78 6.77 6.77 0 0 1 5.51 5.52.4.4 0 0 0 .39.33h.07a.39.39 0 0 0 .33-.46zm0 0" transform="translate(-292 -858)"/></g></svg>