<svg id="Layer_1" data-name="Layer 1" xmlns="http://www.w3.org/2000/svg" width="16.71" height="13.85" viewBox="0 0 16.71 13.85"><defs><style>.cls-1{fill:#fff}.cls-2{fill:none;stroke:#fff;stroke-miterlimit:10}</style></defs><title>wifi</title><path class="cls-1" d="M298.54 607.6a1 1 0 1 1-1 1 1 1 0 0 1 1-1m0-1a2 2 0 1 0 2 2 2 2 0 0 0-2-2z" transform="translate(-290.15 -596.75)"/><path class="cls-2" d="M306.5 600.56a11.32 11.32 0 0 0-16 0m14.01 2.44a8.51 8.51 0 0 0-12 0m9.82 2.39a5.43 5.43 0 0 0-7.66 0" transform="translate(-290.15 -596.75)"/></svg>